<svg width="208" height="64" viewBox="0 0 208 64" fill="none" xmlns="http://www.w3.org/2000/svg">
<path d="M48.3556 7.15206C48.0983 7.21385 47.8599 7.33981 47.6626 7.51808C47.4653 7.69634 47.3157 7.92105 47.2278 8.17104C44.1369 16.9716 38.5529 19.8802 32.6531 22.9579C26.4637 26.1864 20.0523 29.539 16.5402 39.5166C16.4405 39.7938 16.4207 40.0921 16.4831 40.3771C16.5455 40.662 16.6876 40.922 16.8929 41.1269L33.1967 57.4307C33.3812 57.6153 33.6105 57.749 33.863 57.8192C34.1156 57.8895 34.383 57.894 34.6402 57.8323C34.8974 57.7706 35.1359 57.6448 35.3333 57.4667C35.5306 57.2885 35.6803 57.0639 35.7683 56.8141C38.8592 48.0135 44.4432 45.1049 50.3499 42.0203C53.8507 40.1917 57.4176 38.3295 60.4867 35.2604C62.8537 32.8934 64.9296 29.8061 66.4573 25.4671C66.5543 25.1915 66.5725 24.8956 66.5099 24.6131C66.4473 24.3306 66.3063 24.0729 66.1031 23.8691L49.7993 7.56534C49.6159 7.37867 49.3871 7.24274 49.1345 7.17042C48.8819 7.0981 48.6138 7.09178 48.3556 7.15206ZM63.2007 25.3876C60.0478 33.4807 54.6526 36.2984 48.9554 39.274C45.4546 41.1027 41.8877 42.9648 38.8186 46.034C36.6726 48.2005 34.9536 50.7502 33.7543 53.5453L19.8064 39.5974C22.9593 31.5043 28.3545 28.6866 34.0517 25.711C39.7489 22.7354 45.6183 19.6773 49.2555 11.4424L63.2007 25.3876ZM37.1506 28.1451C36.274 29.0216 35.6723 30.1336 35.4214 31.3404C35.1706 32.5473 35.282 33.7947 35.7414 34.9251C36.2009 36.0554 36.9878 37.0179 38.0027 37.6907C39.0175 38.3636 40.2148 38.7166 41.443 38.7052C42.6712 38.6938 43.8752 38.3184 44.9028 37.6265C45.9303 36.9347 46.7353 35.9574 47.2159 34.8183C47.6964 33.6792 47.831 32.4295 47.6026 31.2271C47.3742 30.0247 46.7931 28.9237 45.9327 28.0633C44.779 26.9096 43.2055 26.27 41.5586 26.2853C39.9116 26.3007 38.326 26.9696 37.1506 28.1451ZM43.6759 34.6704C43.2376 35.1086 42.6816 35.4095 42.0782 35.5349C41.4748 35.6603 40.851 35.6047 40.2859 35.3749C39.7207 35.1452 39.2395 34.7517 38.903 34.2443C38.5666 33.7369 38.3901 33.1383 38.3958 32.5242C38.4015 31.9101 38.5892 31.308 38.9351 30.7943C39.2811 30.2805 39.7697 29.878 40.3392 29.6377C40.9088 29.3974 41.5337 29.3301 42.1349 29.4443C42.736 29.5585 43.2865 29.8491 43.7167 30.2793C44.2936 30.8562 44.6134 31.6429 44.6057 32.4664C44.5981 33.2899 44.2636 34.0827 43.6759 34.6704ZM27.1787 38.1169L33.704 44.6422C33.9925 44.9307 34.1524 45.324 34.1485 45.7358C34.1447 46.1475 33.9774 46.5439 33.6836 46.8378C33.3897 47.1316 32.9933 47.2989 32.5816 47.3027C32.1699 47.3065 31.7765 47.1466 31.4881 46.8582L24.9627 40.3329C24.6743 40.0444 24.5144 39.6511 24.5182 39.2393C24.5221 38.8276 24.6893 38.4312 24.9832 38.1373C25.277 37.8435 25.6734 37.6762 26.0852 37.6724C26.4969 37.6686 26.8903 37.8285 27.1787 38.1169ZM55.8228 26.8736L49.2975 20.3483C49.0091 20.0599 48.8492 19.6665 48.853 19.2548C48.8569 18.843 49.0241 18.4466 49.3179 18.1528C49.6118 17.8589 50.0082 17.6917 50.4199 17.6878C50.8317 17.684 51.225 17.8439 51.5135 18.1323L58.0388 24.6577C58.3272 24.9461 58.4871 25.3395 58.4833 25.7512C58.4795 26.1629 58.3122 26.5593 58.0184 26.8532C57.7245 27.1471 57.3281 27.3143 56.9164 27.3181C56.5046 27.322 56.1113 27.1621 55.8228 26.8736Z" fill="url(#paint0_linear_162_909)"/>
<path d="M85.982 44.71C84.5087 44.71 83.1827 44.5627 82.004 44.268C80.8253 43.9734 79.8053 43.5314 78.944 42.942C78.1053 42.3527 77.448 41.616 76.972 40.732C76.5187 39.848 76.258 38.8394 76.19 37.706L81.052 36.21C81.12 37.1847 81.3807 37.9894 81.834 38.624C82.2873 39.2587 82.8993 39.7347 83.67 40.052C84.4633 40.3467 85.336 40.494 86.288 40.494C87.172 40.494 87.92 40.392 88.532 40.188C89.144 39.9614 89.6087 39.6667 89.926 39.304C90.266 38.9414 90.436 38.556 90.436 38.148C90.436 37.6267 90.2207 37.196 89.79 36.856C89.3593 36.516 88.77 36.2327 88.022 36.006C87.2967 35.7567 86.4467 35.5187 85.472 35.292C84.384 35.02 83.3073 34.7254 82.242 34.408C81.1993 34.0907 80.2473 33.6827 79.386 33.184C78.5247 32.6627 77.8333 32.0054 77.312 31.212C76.8133 30.396 76.564 29.3874 76.564 28.186C76.564 26.7807 76.9153 25.568 77.618 24.548C78.3207 23.528 79.352 22.7347 80.712 22.168C82.072 21.6014 83.704 21.318 85.608 21.318C87.5347 21.318 89.1893 21.6127 90.572 22.202C91.9547 22.7687 93.02 23.5734 93.768 24.616C94.516 25.6587 94.89 26.8827 94.89 28.288L89.96 29.58C89.96 28.9 89.858 28.3107 89.654 27.812C89.4727 27.3134 89.1893 26.894 88.804 26.554C88.4413 26.214 87.9767 25.9647 87.41 25.806C86.866 25.6247 86.2427 25.534 85.54 25.534C84.724 25.534 84.0327 25.636 83.466 25.84C82.8993 26.0214 82.4687 26.282 82.174 26.622C81.902 26.9394 81.766 27.3134 81.766 27.744C81.766 28.2654 81.9813 28.696 82.412 29.036C82.8653 29.376 83.4773 29.6707 84.248 29.92C85.0187 30.1467 85.8913 30.3734 86.866 30.6C87.8407 30.8267 88.838 31.0987 89.858 31.416C90.878 31.7334 91.83 32.1414 92.714 32.64C93.6207 33.1387 94.346 33.8187 94.89 34.68C95.434 35.5187 95.706 36.584 95.706 37.876C95.706 39.2814 95.332 40.5054 94.584 41.548C93.836 42.568 92.7367 43.35 91.286 43.894C89.8353 44.438 88.0673 44.71 85.982 44.71ZM104.636 44.71C102.573 44.71 101.021 44.0074 99.978 42.602C98.9354 41.174 98.414 38.998 98.414 36.074V26.282H103.922V35.53C103.922 37.1167 104.149 38.284 104.602 39.032C105.078 39.78 105.781 40.154 106.71 40.154C107.299 40.154 107.809 40.0067 108.24 39.712C108.671 39.4174 109.045 38.998 109.362 38.454C109.679 37.91 109.906 37.264 110.042 36.516C110.201 35.7454 110.28 34.8954 110.28 33.966V26.282H115.754V36.754V44.234H111.334L111.266 38.318H110.688C110.393 39.814 109.997 41.038 109.498 41.99C108.999 42.9194 108.353 43.6107 107.56 44.064C106.789 44.4947 105.815 44.71 104.636 44.71ZM119.57 44.234V33.048V26.282H123.956L123.99 32.062H124.602C124.874 30.6114 125.259 29.4327 125.758 28.526C126.279 27.5967 126.914 26.9167 127.662 26.486C128.433 26.0327 129.328 25.806 130.348 25.806C131.413 25.806 132.286 26.044 132.966 26.52C133.669 26.996 134.213 27.6987 134.598 28.628C134.983 29.5347 135.221 30.6794 135.312 32.062H135.822C136.139 30.5887 136.581 29.3987 137.148 28.492C137.715 27.5627 138.406 26.8827 139.222 26.452C140.038 26.0214 140.945 25.806 141.942 25.806C142.939 25.806 143.801 25.9987 144.526 26.384C145.274 26.7694 145.897 27.336 146.396 28.084C146.895 28.832 147.269 29.784 147.518 30.94C147.767 32.0734 147.892 33.388 147.892 34.884V44.234H142.384V35.53C142.384 34.3967 142.293 33.4674 142.112 32.742C141.931 31.994 141.647 31.4387 141.262 31.076C140.877 30.6907 140.389 30.498 139.8 30.498C139.097 30.498 138.497 30.7474 137.998 31.246C137.499 31.7447 137.103 32.4474 136.808 33.354C136.536 34.238 136.4 35.2807 136.4 36.482V44.234H131.028V35.564C131.028 34.408 130.926 33.4674 130.722 32.742C130.518 31.994 130.223 31.4387 129.838 31.076C129.453 30.6907 128.965 30.498 128.376 30.498C127.696 30.498 127.107 30.736 126.608 31.212C126.109 31.688 125.724 32.3794 125.452 33.286C125.18 34.17 125.044 35.2354 125.044 36.482V44.234H119.57ZM161.278 44.71C159.896 44.71 158.66 44.5627 157.572 44.268C156.484 43.996 155.544 43.588 154.75 43.044C153.957 42.5 153.3 41.8427 152.778 41.072C152.257 40.3014 151.86 39.44 151.588 38.488C151.339 37.5134 151.214 36.4707 151.214 35.36V21.794H156.722V35.156C156.722 36.2667 156.892 37.1734 157.232 37.876C157.572 38.556 158.082 39.0547 158.762 39.372C159.442 39.6894 160.281 39.848 161.278 39.848C162.298 39.848 163.137 39.6894 163.794 39.372C164.474 39.0547 164.984 38.556 165.324 37.876C165.664 37.1734 165.834 36.2667 165.834 35.156V21.794H171.308V35.36C171.308 38.3067 170.47 40.6074 168.792 42.262C167.138 43.894 164.633 44.71 161.278 44.71ZM175.019 49.81V34.782V26.282H179.575L179.609 31.484L180.153 31.552C180.38 30.26 180.743 29.1947 181.241 28.356C181.763 27.4947 182.431 26.86 183.247 26.452C184.063 26.0214 185.015 25.806 186.103 25.806C187.645 25.806 188.959 26.1914 190.047 26.962C191.158 27.71 192.008 28.798 192.597 30.226C193.187 31.6314 193.481 33.3314 193.481 35.326C193.481 37.2074 193.209 38.8507 192.665 40.256C192.121 41.6614 191.317 42.7607 190.251 43.554C189.186 44.3247 187.883 44.71 186.341 44.71C185.253 44.71 184.324 44.506 183.553 44.098C182.783 43.69 182.125 43.0894 181.581 42.296C181.06 41.48 180.641 40.4827 180.323 39.304H179.745C179.881 39.916 180.006 40.5507 180.119 41.208C180.233 41.8427 180.323 42.4774 180.391 43.112C180.459 43.724 180.493 44.3134 180.493 44.88V49.81H175.019ZM184.301 40.324C185.049 40.324 185.673 40.12 186.171 39.712C186.693 39.2814 187.089 38.7034 187.361 37.978C187.656 37.23 187.803 36.38 187.803 35.428C187.803 34.408 187.656 33.524 187.361 32.776C187.067 32.0054 186.647 31.416 186.103 31.008C185.559 30.5774 184.925 30.362 184.199 30.362C183.565 30.362 183.009 30.498 182.533 30.77C182.08 31.042 181.695 31.416 181.377 31.892C181.083 32.3454 180.856 32.8554 180.697 33.422C180.561 33.966 180.493 34.5327 180.493 35.122V35.734C180.493 36.2327 180.55 36.7087 180.663 37.162C180.777 37.5927 180.947 38.0007 181.173 38.386C181.4 38.7714 181.672 39.1114 181.989 39.406C182.307 39.7007 182.658 39.9274 183.043 40.086C183.429 40.2447 183.848 40.324 184.301 40.324Z" fill="url(#paint1_linear_162_909)"/>
<defs>
<linearGradient id="paint0_linear_162_909" x1="30.617" y1="21.617" x2="54.7658" y2="28.7613" gradientUnits="userSpaceOnUse">
<stop stop-color="#813434"/>
<stop offset="1" stop-color="#EE924D"/>
</linearGradient>
<linearGradient id="paint1_linear_162_909" x1="85.952" y1="23.9319" x2="205.781" y2="60.772" gradientUnits="userSpaceOnUse">
<stop stop-color="#EE924D"/>
<stop offset="1" stop-color="#FFAE00"/>
</linearGradient>
</defs>
</svg>
