<svg width="51" height="51" viewBox="0 0 51 51" fill="none" xmlns="http://www.w3.org/2000/svg">
<path d="M32.3556 0.152057C32.0983 0.213853 31.8599 0.339813 31.6626 0.518078C31.4653 0.696343 31.3157 0.921048 31.2278 1.17104C28.1369 9.97158 22.5529 12.8802 16.6531 15.9579C10.4637 19.1864 4.0523 22.539 0.540197 32.5166C0.440474 32.7938 0.420678 33.0921 0.483094 33.3771C0.54551 33.662 0.687592 33.922 0.892933 34.1269L17.1967 50.4307C17.3812 50.6153 17.6105 50.749 17.863 50.8192C18.1156 50.8895 18.383 50.894 18.6402 50.8323C18.8974 50.7706 19.1359 50.6448 19.3333 50.4667C19.5306 50.2885 19.6803 50.0639 19.7683 49.8141C22.8592 41.0135 28.4432 38.1049 34.3499 35.0203C37.8507 33.1917 41.4176 31.3295 44.4867 28.2604C46.8537 25.8934 48.9296 22.8061 50.4573 18.4671C50.5543 18.1915 50.5725 17.8956 50.5099 17.6131C50.4473 17.3306 50.3063 17.0729 50.1031 16.8691L33.7993 0.565343C33.616 0.378668 33.3871 0.242743 33.1345 0.170424C32.8819 0.0981046 32.6138 0.091783 32.3556 0.152057ZM47.2007 18.3876C44.0478 26.4807 38.6526 29.2984 32.9554 32.274C29.4546 34.1027 25.8877 35.9648 22.8186 39.034C20.6726 41.2005 18.9536 43.7502 17.7543 46.5453L3.8064 32.5974C6.95931 24.5043 12.3545 21.6866 18.0517 18.711C23.7489 15.7354 29.6183 12.6773 33.2555 4.44245L47.2007 18.3876ZM21.1506 21.1451C20.274 22.0216 19.6723 23.1336 19.4214 24.3404C19.1706 25.5473 19.282 26.7947 19.7414 27.9251C20.2009 29.0554 20.9878 30.0179 22.0027 30.6907C23.0175 31.3636 24.2148 31.7166 25.443 31.7052C26.6712 31.6938 27.8752 31.3184 28.9028 30.6265C29.9303 29.9347 30.7353 28.9574 31.2159 27.8183C31.6964 26.6792 31.831 25.4295 31.6026 24.2271C31.3742 23.0247 30.7931 21.9237 29.9327 21.0633C28.779 19.9096 27.2055 19.27 25.5586 19.2853C23.9116 19.3007 22.326 19.9696 21.1506 21.1451ZM27.6759 27.6704C27.2376 28.1086 26.6816 28.4095 26.0782 28.5349C25.4748 28.6603 24.851 28.6047 24.2859 28.3749C23.7207 28.1452 23.2395 27.7517 22.903 27.2443C22.5666 26.7369 22.3901 26.1383 22.3958 25.5242C22.4015 24.9101 22.5892 24.308 22.9351 23.7943C23.2811 23.2805 23.7697 22.878 24.3392 22.6377C24.9088 22.3974 25.5337 22.3301 26.1349 22.4443C26.736 22.5585 27.2865 22.8491 27.7167 23.2793C28.2936 23.8562 28.6134 24.6429 28.6057 25.4664C28.5981 26.2899 28.2636 27.0827 27.6759 27.6704ZM11.1787 31.1169L17.704 37.6422C17.9925 37.9307 18.1524 38.324 18.1485 38.7358C18.1447 39.1475 17.9774 39.5439 17.6836 39.8378C17.3897 40.1316 16.9933 40.2989 16.5816 40.3027C16.1699 40.3065 15.7765 40.1466 15.4881 39.8582L8.96273 33.3329C8.6743 33.0444 8.51441 32.6511 8.51824 32.2393C8.52207 31.8276 8.68931 31.4312 8.98316 31.1373C9.27702 30.8435 9.67342 30.6762 10.0852 30.6724C10.4969 30.6686 10.8903 30.8285 11.1787 31.1169ZM39.8228 19.8736L33.2975 13.3483C33.0091 13.0599 32.8492 12.6665 32.853 12.2548C32.8569 11.843 33.0241 11.4466 33.3179 11.1528C33.6118 10.8589 34.0082 10.6917 34.4199 10.6878C34.8317 10.684 35.225 10.8439 35.5135 11.1323L42.0388 17.6577C42.3272 17.9461 42.4871 18.3395 42.4833 18.7512C42.4795 19.1629 42.3122 19.5593 42.0184 19.8532C41.7245 20.1471 41.3281 20.3143 40.9164 20.3181C40.5046 20.322 40.1113 20.1621 39.8228 19.8736Z" fill="url(#paint0_linear_688_245)"/>
<defs>
<linearGradient id="paint0_linear_688_245" x1="14.617" y1="14.617" x2="38.7658" y2="21.7613" gradientUnits="userSpaceOnUse">
<stop stop-color="#813434"/>
<stop offset="1" stop-color="#EE924D"/>
</linearGradient>
</defs>
</svg>
